<?xml version="1.0" encoding="UTF-8"?>
<svg xmlns="http://www.w3.org/2000/svg" width="64" height="64" viewBox="0 0 64 64" role="img" aria-label="PINVI favicon">
  <defs>
    <linearGradient id="bgGrad" x1="0" y1="0" x2="1" y2="1">
      <stop offset="0%" stop-color="#03163B"/>
      <stop offset="100%" stop-color="#08275D"/>
    </linearGradient>
    <linearGradient id="mintGrad" x1="0.15" y1="0.1" x2="0.85" y2="0.9">
      <stop offset="0%" stop-color="#68F0E4"/>
      <stop offset="100%" stop-color="#1EC7B8"/>
    </linearGradient>
  </defs>
  <rect x="0" y="0" width="64" height="64" rx="12" fill="url(#bgGrad)"/>
  <path d="M32 10.8 C41.7 10.8 49.2 18.4 49.2 28 C49.2 35.8 45 42.2 38.1 49.7 L32 56.2 L25.9 49.7 C19 42.2 14.8 35.8 14.8 28 C14.8 18.4 22.3 10.8 32 10.8 Z"
        fill="none" stroke="url(#mintGrad)" stroke-width="2.5" stroke-linecap="round" stroke-linejoin="round"/>
  <path d="M23 27.2 L32 42.3 L41 27.2" fill="none" stroke="url(#mintGrad)" stroke-width="1.9" stroke-linecap="round" stroke-linejoin="round"/>
  <circle cx="23" cy="27.2" r="2.4" fill="url(#mintGrad)"/>
  <circle cx="32" cy="42.3" r="2.4" fill="url(#mintGrad)"/>
  <circle cx="41" cy="27.2" r="2.4" fill="url(#mintGrad)"/>
  <path d="M32 17.8 C32.6 20.4 34.6 22.2 37.2 22.8 C34.6 23.4 32.6 25.2 32 27.8 C31.4 25.2 29.4 23.4 26.8 22.8 C29.4 22.2 31.4 20.4 32 17.8 Z" fill="#FFB43D"/>
</svg>
